<svg id="Layer_1" enable-background="new 0 0 511.04 511.04" height="512" viewBox="0 0 511.04 511.04" width="512" xmlns="http://www.w3.org/2000/svg"><g><g><path d="m255.52 0c-135.666 0-245.645 109.979-245.645 245.645l138.644 91.367 352.253-77.376c.26-4.631.392-9.295.392-13.991.001-135.666-109.978-245.645-245.644-245.645z" fill="#9bd069"/></g><g><g><path d="m339.595 259.635c-28.346 0-50.777-24.346-48.038-52.56.024-.244.046-.486.068-.726.744-8.36 5.049-15.932 11.68-21.078 4.371-3.391 7.183-8.694 7.183-14.655-.778-4.668 3.399-18.869-9.477-26.096-9.823-5.513-11.51-17.825-6.246-25.732.51-.766.821-1.547.916-2.341h.059c0-.38-.011-.758-.029-1.134h.029v-39.88c0-24.033-19.482-43.515-43.515-43.515l-23.226-.571c-1.881-.046-3.579-.976-4.824-2.387-1.865-2.113-6.231-3.596-11.319-3.596s-9.454 1.483-11.319 3.596c-1.245 1.411-2.943 2.341-4.824 2.387l-23.226.571c-24.033 0-43.515 19.482-43.515 43.515v39.881h.029c-.018.376-.029.754-.029 1.134h.059c.19 1.587 1.23 3.125 3.009 4.592v13.776.002 39.962 24.178c0 19.024 6.645 36.464 17.72 50.159 7.904 9.774 7.314 23.902-1.193 33.154-.175.19-.35.38-.525.571-12.394 13.467-34.448 9.875-42.059-6.77-6.782-14.832-12.031-30.281-15.713-46.086-10.761-46.198-80.16-42.334-81.323 10.133v.009c-1.339 60.571 19.741 116.416 55.303 159.987 43.826 53.697 109.633 74.599 182.593 76.888.353.011-.354-.009 0 0 133.473 3.605 245.516-85.751 252.916-217.368z" fill="#69b76b"/></g></g><g><g><g><path d="m394.152 499.756h-22.568c-5.342 0-9.672-4.33-9.672-9.672s4.33-9.672 9.672-9.672h22.568c5.342 0 9.672 4.33 9.672 9.672s-4.33 9.672-9.672 9.672z" fill="#ffbe82"/></g></g><g><path d="m330.408 442.427c-1.517-9.329 9.449-66.607-38.75-115.139v.046c-7.366-7.42-15.208-13.735-24.394-19.446 0-.007 0-.014.001-.021-.103-.064-2.357-1.43-2.462-1.492v.02c-19.876-11.758-43.052-18.528-67.818-18.528-2.409 0-4.803.064-7.18.192-18.727 1.001-36.288 9.416-48.931 23.267-.153.168-.306.335-.46.503-12.08 13.226-18.777 30.493-18.777 48.405v90.742c34.028 22.379 73.447 36.393 115.447 39.603 8.08.616 81.785-38.459 93.324-48.152z" fill="#f5415f"/><path d="m196.985 287.866c-24.441 0-47.335 6.589-67.036 18.061v-.016c-.108.063-1.871 1.104-1.992 1.178v.025c-32.803 19.878-56.395 53.517-62.696 92.991 25.188 30.861 57.629 55.573 94.526 71.438-31.538-27.971-41.156-75.467-18.886-113.94 9.667-16.701 23.83-32.268 44.517-43.359v-.025c.122-.074 1.885-1.115 1.992-1.178v.016c16.256-9.467 34.692-15.597 54.372-17.454-14.001-5-29.076-7.737-44.797-7.737z" fill="#cd2846"/><g><g><path d="m196.985 264.328c-33.309 0-60.312 27.003-60.312 60.312 0 22.171 11.971 41.535 29.794 52.015l30.87-30.87 30.613 30.613c17.578-10.539 29.347-29.771 29.347-51.758 0-33.309-27.002-60.312-60.312-60.312z" fill="#cd2846"/></g></g><g><g><path d="m196.985 254.658c-33.309 0-60.312 27.003-60.312 60.312 0 22.171 11.971 41.535 29.794 52.015l30.87-30.87 30.613 30.613c17.578-10.539 29.347-29.771 29.347-51.758 0-33.309-27.002-60.312-60.312-60.312z" fill="#fff"/></g></g><g><g><g><g><path d="m198.148 334.913h-1.544c-14.954 0-27.077-12.123-27.077-27.077v-63.149h55.698v63.149c0 14.954-12.122 27.077-27.077 27.077z" fill="#ff965a"/></g></g></g></g><g><g><g><g><path d="m272.925 146.976c0-25.415-16.304-48.655-41.719-48.655h-67.659c-9.353 0-17.691 3.155-24.502 8.4v135.514c0 19.772 12.303 37.494 30.867 44.297 8.563 3.138 17.813 4.851 27.464 4.851 43.666 0 79.064-35.398 79.064-79.064v-24.961z" fill="#ffbe82"/></g></g></g></g><g><path d="m128.335 117.361c-6.739 8.004-10.805 18.332-10.805 29.614v64.56c0 34.263 21.554 63.392 51.721 74.753 5.632 2.121 9.812-5.407 5.099-9.149-18.417-14.626-30.226-37.211-30.226-62.556v-35.092c0-15.031 12.813-26.784 27.803-25.671 8.007.595 16.547.916 25.42.916 31.235 0 58.408-3.973 72.529-9.837v-27.538z" fill="#ff965a"/></g><g><g><g><g><path d="m276.955 201.732h-.514v-46.995h.514c9.954 0 18.024 8.07 18.024 18.024v10.947c0 9.954-8.07 18.024-18.024 18.024z" fill="#ff965a"/></g></g></g></g><g><g><g><g><path d="m117.016 201.732h.514v-46.995h-.514c-9.954 0-18.024 8.07-18.024 18.024v10.947c0 9.954 8.069 18.024 18.024 18.024z" fill="#ff965a"/></g></g></g></g><g><g><g><g><path d="m169.8 194.934c-3.637 0-6.585-2.949-6.585-6.585v-18.01c0-3.637 2.949-6.585 6.585-6.585 3.637 0 6.585 2.949 6.585 6.585v18.01c.001 3.636-2.948 6.585-6.585 6.585z" fill="#ff965a"/></g></g></g></g><g><g><g><g><path d="m223.579 194.934c-3.637 0-6.585-2.949-6.585-6.585v-18.01c0-3.637 2.949-6.585 6.585-6.585 3.637 0 6.585 2.949 6.585 6.585v18.01c0 3.636-2.948 6.585-6.585 6.585z" fill="#ff965a"/></g></g></g></g><g><g><g><g><path d="m169.8 189.659c-3.637 0-6.585-2.949-6.585-6.585v-18.01c0-3.637 2.949-6.585 6.585-6.585 3.637 0 6.585 2.949 6.585 6.585v18.01c.001 3.636-2.948 6.585-6.585 6.585z" fill="#373c41"/></g></g></g></g><g><g><g><g><path d="m223.579 189.659c-3.637 0-6.585-2.949-6.585-6.585v-18.01c0-3.637 2.949-6.585 6.585-6.585 3.637 0 6.585 2.949 6.585 6.585v18.01c0 3.636-2.948 6.585-6.585 6.585z" fill="#373c41"/></g></g></g></g><g><g><g><g><g><path d="m178.476 155.186h-19.204c-3.637 0-6.585-2.948-6.585-6.585 0-3.637 2.948-6.585 6.585-6.585h19.204c3.637 0 6.585 2.948 6.585 6.585 0 3.637-2.948 6.585-6.585 6.585z" fill="#783c28"/></g></g></g></g></g><g><g><g><g><g><path d="m233.352 155.186h-19.204c-3.637 0-6.585-2.948-6.585-6.585 0-3.637 2.948-6.585 6.585-6.585h19.204c3.637 0 6.585 2.948 6.585 6.585 0 3.637-2.948 6.585-6.585 6.585z" fill="#783c28"/></g></g></g></g></g><g><g><path d="m221.624 226.09h-48.494c-2.012 0-3.62 1.756-3.351 3.751.514 3.815 1.8 7.385 3.696 10.548l36.159 10.716c8.166-4.009 14.082-11.898 15.343-21.264.267-1.995-1.341-3.751-3.353-3.751z" fill="#cd2846"/></g></g><g><g><g><g><path d="m186.707 199.007c-1.637 6.537 1.338 13.658 7.027 15.804 1.145.432 2.37.666 3.642.666 1.273 0 2.498-.234 3.643-.666 5.689-2.146 8.664-9.267 7.027-15.804l-5.427-21.671c-1.366-5.456-9.12-5.456-10.486 0z" fill="#ff965a"/></g></g></g></g><g><g><path d="m237.924 109.197c2.434-4.422 7.969-6.109 12.533-3.954.068.032.136.064.203.097 4.951 2.369 8.909 6.171 11.547 10.755h5.546c4.798 0 8.687-3.889 8.687-8.687v-17.398c0-19.665-15.942-35.607-35.607-35.607h-87.698c-5.91.008-10.745 4.851-10.745 10.761v40.923c.593-.32 1.192-.635 1.825-.914 7.728-3.412 15.759 4.139 13.193 12.187-.013.04-.026.081-.038.121-1.786 5.669 2.461 11.439 8.405 11.439h38.806c28.654 0 31.725-16.783 33.343-19.723z" fill="#783c28"/></g></g><g><g><g><path d="m143.902 90.01c0-19.665 15.942-35.607 35.607-35.607h-26.373c-19.665 0-35.607 15.942-35.607 35.607v57.383.002 39.962c5.849 0 10.59-4.741 10.59-10.59v-46.761c0-10.329 5.812-19.848 15.1-24.366.228-.111.455-.219.682-.324v-15.306z" fill="#5a2d19"/></g></g><g><g><path d="m264.196 109.379c-.941 1.688-2.021 3.286-3.199 4.803 3.104 4.487 4.854 9.908 4.854 15.568v47.017c0 5.849 4.741 10.59 10.59 10.59v-40.382-41.893c-4.528-1.898-9.832-.031-12.245 4.297z" fill="#5a2d19"/></g></g><g><g><path d="m192.151 128.92c-5.929 0-10.194-5.752-8.416-11.409.031-.1.063-.2.096-.3 2.625-8.116-5.799-15.501-13.534-11.906-.234.109-.469.22-.704.335-5.536 2.693-9.822 7.169-12.394 12.528-1.266 5.436 2.879 10.752 8.579 10.752h38.804.001z" fill="#a55a3c"/></g></g></g><g><g><path d="m165.71 177.031h-.135c-1.304 0-2.36-1.057-2.36-2.36v-7.486c0-1.304 1.057-2.36 2.36-2.36h.135c1.304 0 2.36 1.057 2.36 2.36v7.486c0 1.303-1.056 2.36-2.36 2.36z" fill="#fff"/></g></g><g><g><path d="m219.366 177.031h-.135c-1.304 0-2.36-1.057-2.36-2.36v-7.486c0-1.304 1.057-2.36 2.36-2.36h.135c1.304 0 2.36 1.057 2.36 2.36v7.486c0 1.303-1.057 2.36-2.36 2.36z" fill="#fff"/></g></g><g><g><path d="m173.477 240.386c4.866 8.117 13.747 13.552 23.9 13.552 4.398 0 8.556-1.023 12.254-2.839-1.59-9.973-10.227-17.596-20.648-17.596-6.151.002-11.68 2.657-15.506 6.883z" fill="#f5415f"/></g></g><g><g><path d="m210.238 233.505h-26.505c-2.543 0-4.605-2.062-4.605-4.605v-2.81h35.715v2.81c0 2.543-2.062 4.605-4.605 4.605z" fill="#fff"/></g></g></g><g><g><path d="m497.052 470.068v-177.989c0-10.972-8.895-19.867-19.867-19.867h-64.861l-48.832 17.588-47.6-17.588h-46.198v197.856z" fill="#ecd833"/></g><g><path d="m404.967 272.162v32.303c.499 6.06-3.171 12.534-11.001 12.534h-71.744c.264 1.165.833 2.248 1.67 3.125l4.635 4.852c2.618 2.741 6.994 2.741 9.612 0l1.67-1.748c2.618-2.74 6.994-2.74 9.612 0l1.671 1.749c2.618 2.74 6.994 2.74 9.612 0l1.669-1.748c2.618-2.74 6.994-2.741 9.612-.001l1.673 1.75c2.618 2.74 6.993 2.74 9.611 0l1.674-1.752c2.618-2.74 6.993-2.74 9.611 0l1.676 1.753c2.618 2.739 6.993 2.739 9.611 0l4.64-4.855c1.182-1.237 1.842-2.882 1.842-4.593v-43.37h-7.356z" fill="#ecc32e"/></g><g><path d="m404.657 319.789c.969-1.184 1.507-2.667 1.507-4.207v-43.369h-69.486v47.577h67.979z" fill="#fff"/></g><g><path d="m401.622 315.138-1.674 1.752c-2.618 2.74-6.994 2.74-9.612 0l-1.672-1.75c-2.618-2.74-6.994-2.74-9.612 0l-1.669 1.747c-2.618 2.741-6.994 2.741-9.612.001l-1.671-1.749c-2.618-2.74-6.994-2.74-9.612 0l-1.67 1.748c-2.618 2.74-6.994 2.74-9.612 0l-1.285-1.345c-3.332-3.488-5.191-8.126-5.191-12.949v-30.383h-22.836v43.37c0 1.71.659 3.355 1.841 4.592l4.635 4.852c2.618 2.74 6.994 2.74 9.612 0l1.67-1.748c2.618-2.74 6.994-2.741 9.612 0l1.671 1.749c2.618 2.74 6.994 2.74 9.612-.001l1.669-1.747c2.618-2.741 6.994-2.741 9.612-.001l1.672 1.75c2.618 2.74 6.993 2.74 9.611 0l1.675-1.752c2.618-2.739 6.993-2.74 9.611 0l1.676 1.753c2.618 2.739 6.993 2.739 9.611 0l4.64-4.854c1.182-1.237 1.842-2.882 1.842-4.593v-2.485c-1.661.067-3.301.742-4.544 2.043z" fill="#d0fbfd"/></g><g><g><path d="m340.132 423.99h3.174v30.572c0 .954.773 1.727 1.727 1.727h7.396c.954 0 1.727-.773 1.727-1.727v-30.572h4.078c1.808 0 2.773-2.13 1.58-3.489l-9.051-10.314c-.837-.954-2.323-.954-3.161 0l-9.051 10.314c-1.192 1.359-.227 3.489 1.581 3.489z" fill="#ecc32e"/></g><g><path d="m365.598 423.99h3.174v30.572c0 .954.773 1.727 1.727 1.727h7.396c.954 0 1.727-.773 1.727-1.727v-30.572h4.078c1.808 0 2.773-2.13 1.58-3.489l-9.051-10.314c-.837-.954-2.323-.954-3.161 0l-9.051 10.314c-1.191 1.359-.226 3.489 1.581 3.489z" fill="#ecc32e"/></g></g><g><path d="m355.707 420.501-9.051-10.314c-.837-.954-2.323-.954-3.161 0l-9.051 10.314c-1.192 1.359-.227 3.489 1.58 3.489h3.174v30.572c0 .954.773 1.727 1.727 1.727h7.396c.954 0 1.727-.773 1.727-1.727v-30.572h4.078c1.808 0 2.773-2.13 1.581-3.489z" fill="#9d66d5"/></g><g><path d="m381.174 420.501-9.051-10.314c-.837-.954-2.323-.954-3.161 0l-9.051 10.314c-1.192 1.359-.227 3.489 1.58 3.489h3.174v30.572c0 .954.773 1.727 1.727 1.727h7.396c.954 0 1.727-.773 1.727-1.727v-30.572h4.078c1.808 0 2.773-2.13 1.581-3.489z" fill="#9d66d5"/></g><g><path d="m332.981 337.967v64.005h8.841c4.065 0 7.361-3.295 7.361-7.36v-50.239c0-4.065-3.295-7.36-7.36-7.36h-8.888c.021.312.046.625.046.954z" fill="#ecc32e"/></g><g><path d="m481.449 465.641c-2.053 0-4.09-.79-5.403-2.368-.67-.805-1.705-1.296-2.799-1.296h-5.811v-11.342c0-2.461 1.276-4.7 3.295-6.108 3.045-2.123 5.037-5.65 5.037-9.643v-22.399c0-1.665-1.35-3.015-3.015-3.015h-1.799l1.513 7.97c.088.464.016.945-.205 1.362l-3.542 6.69c-.123.231-.2.484-.229.744l-.424 3.816c-.119 1.074-1.584 1.296-2.017.306l-1.536-3.519c-.322-.739-.36-1.57-.105-2.335l2.128-6.385c.123-.369.14-.766.049-1.144l-1.801-7.505h-9.511c-1.665 0-3.015 1.35-3.015 3.015v22.399c0 5.301 3.51 9.779 8.332 11.244v15.848h-5.811c-1.09 0-2.126.489-2.797 1.293-1.318 1.58-3.36 2.371-5.418 2.371h-14.473c-4.923 0-8.941-4.018-8.849-8.94.001-.083.003-.166.003-.249v-12.677c0-5.089 4.126-9.215 9.215-9.215h7.71c2.755 0 4.767-2.549 4.195-5.243-2.411-11.34-12.483-19.846-24.541-19.846-12.059 0-22.13 8.507-24.541 19.846-.573 2.694 1.44 5.243 4.194 5.243h16.925v21.741c0 2.195-1.574 4.154-3.751 4.434-2.634.338-4.888-1.714-4.888-4.283v-3.79c0-1.787-1.306-3.383-3.086-3.553-2.041-.195-3.758 1.405-3.758 3.406v3.937c0 .392.02.78.06 1.162.355 3.41-1.735 6.7-5.013 7.704-2.816.863-5.744-.055-7.577-2.165-.634-.73-1.57-1.176-2.583-1.176h-47.781c-1.89 0-3.422 1.532-3.422 3.422 0 .083.019.161.024.242h-49.455c-7.301 0-13.22-5.919-13.22-13.22v-34.79c0-8.648 7.011-15.659 15.659-15.659h.313v-64.657c0-.104.013-.2.015-.303h-.328c-8.648 0-15.659-7.011-15.659-15.659v-49.14h-33.729c-7.301 0-13.22 5.919-13.22 13.22v191.955c0 7.301 5.919 13.22 13.22 13.22h245.608c7.301 0 13.22-5.919 13.22-13.22v-11.745h-15.603z" fill="#ecc32e"/></g><g><path d="m440.259 429.317c-2.411-11.34-12.483-19.847-24.541-19.847-12.059 0-22.13 8.507-24.541 19.847-.573 2.694 1.44 5.243 4.194 5.243h16.925v21.891c0 2.382-1.938 4.32-4.32 4.32s-4.32-1.938-4.32-4.32v-3.937c0-1.89-1.532-3.422-3.422-3.422s-3.422 1.532-3.422 3.422v3.937c0 6.156 5.008 11.164 11.164 11.164s11.164-5.008 11.164-11.164v-21.891h16.925c2.754.001 4.767-2.548 4.194-5.243z" fill="#ababff"/></g><g><g><path d="m381.7 468.821h-47.781c-1.89 0-3.422-1.532-3.422-3.422s1.532-3.422 3.422-3.422h47.781c1.89 0 3.422 1.532 3.422 3.422s-1.533 3.422-3.422 3.422z" fill="#9d66d5"/></g></g><g><path d="m469.141 461.977h-5.811v-15.849c4.822-1.466 8.332-5.944 8.332-11.244v-22.399c0-1.665-1.35-3.015-3.015-3.015h-1.799l1.513 7.97c.088.464.016.945-.205 1.362l-3.542 6.69c-.122.231-.2.484-.229.744l-.424 3.816c-.119 1.074-1.584 1.296-2.017.306l-1.536-3.519c-.322-.738-.36-1.57-.105-2.334l2.128-6.385c.123-.369.14-.766.049-1.144l-1.801-7.505h-9.511c-1.665 0-3.015 1.35-3.015 3.015v22.399c0 5.301 3.51 9.779 8.332 11.244v15.849h-5.811c-1.787 0-3.383 1.306-3.553 3.086-.195 2.041 1.405 3.758 3.406 3.758h18.761c2.001 0 3.601-1.717 3.406-3.758-.17-1.78-1.766-3.087-3.553-3.087z" fill="#8659b9"/></g><g><g><path d="m342.56 392.427c.068-.497.116-1.001.116-1.517v-42.838c0-6.109-4.952-11.061-11.061-11.061h-62.573v55.416z" fill="#9bd069"/></g></g><g><path d="m278.854 388.924c-4.065 0-7.36-3.295-7.36-7.36 0-4.25 3.446-7.696 7.696-7.696h32.063c1.787 0 3.383-1.306 3.553-3.086.195-2.041-1.405-3.758-3.406-3.758h-36.327c-1.977 0-3.579-1.602-3.579-3.579 0-1.977 1.602-3.579 3.579-3.579h16.898c1.787 0 3.383-1.306 3.553-3.086.195-2.041-1.405-3.758-3.406-3.758h-17.045c-1.977 0-3.579-1.602-3.579-3.579v-12.432h-22.573c-4.065 0-7.36 3.295-7.36 7.36v50.239c0 4.065 3.295 7.361 7.36 7.361h86.395c4.065 0 7.36-3.295 7.36-7.36v-5.687z" fill="#69b76b"/></g></g><g><path d="m280.23 127.891h-165.768v-41.087c0-23.367 18.942-42.309 42.309-42.309h81.15c23.367 0 42.309 18.942 42.309 42.309z" fill="#3342aa"/></g><g><path d="m235.707 128.92h-76.722v-47.128c0-20.599 16.699-37.298 37.298-37.298h2.126c20.599 0 37.298 16.699 37.298 37.298z" fill="#fff"/></g><g><path d="m138.021 105.466c-13.011 0-23.559 10.548-23.559 23.559h.059c1.232 10.271 37.828 18.512 82.825 18.512s81.593-8.241 82.825-18.512h.059c0-13.011-10.548-23.559-23.559-23.559z" fill="#2b3890"/></g><g><ellipse cx="197.346" cy="43.829" fill="#2b3890" rx="12.285" ry="5.888"/></g><g><g><path d="m308.715 509.428c-4.451 0-8.06-3.608-8.06-8.06v-22.568c0-4.452 3.609-8.06 8.06-8.06s8.06 3.608 8.06 8.06v22.568c0 4.452-3.609 8.06-8.06 8.06z" fill="#ffbe82"/></g></g><g><g><path d="m324.835 511.04c-5.342 0-9.672-4.33-9.672-9.672v-22.568c0-5.342 4.33-9.672 9.672-9.672s9.672 4.33 9.672 9.672v22.568c0 5.342-4.33 9.672-9.672 9.672z" fill="#ffbe82"/></g></g><g><g><path d="m343.105 511.04c-5.342 0-9.672-4.33-9.672-9.672v-22.568c0-5.342 4.33-9.672 9.672-9.672s9.672 4.33 9.672 9.672v22.568c0 5.342-4.33 9.672-9.672 9.672z" fill="#ffbe82"/></g></g><g><g><path d="m361.374 511.04c-5.342 0-9.672-4.33-9.672-9.672v-22.568c0-5.342 4.33-9.672 9.672-9.672s9.672 4.33 9.672 9.672v22.568c.001 5.342-4.33 9.672-9.672 9.672z" fill="#ffbe82"/></g></g><g><path d="m361.374 495.612c-4.235 0-7.825-2.726-9.135-6.516-1.31 3.79-4.9 6.516-9.135 6.516s-7.825-2.726-9.135-6.516c-1.31 3.79-4.9 6.516-9.135 6.516-4.043 0-7.503-2.483-8.948-6.006-1.335 2.607-4.042 4.394-7.172 4.394-4.452 0-8.06-3.608-8.06-8.06v15.428c0 4.452 3.609 8.06 8.06 8.06 3.13 0 5.837-1.787 7.172-4.394 1.445 3.523 4.905 6.006 8.948 6.006 4.235 0 7.825-2.726 9.135-6.516 1.31 3.79 4.9 6.516 9.135 6.516s7.825-2.726 9.135-6.516c1.31 3.79 4.9 6.516 9.135 6.516 5.342 0 9.672-4.33 9.672-9.672v-15.428c.001 5.342-4.33 9.672-9.672 9.672z" fill="#ff965a"/></g></g></g></svg>